<?xml version="1.0" ?><svg enable-background="new 0 0 500 500" id="Layer_1" version="1.1" viewBox="0 0 500 500" xml:space="preserve" xmlns="http://www.w3.org/2000/svg" xmlns:xlink="http://www.w3.org/1999/xlink"><g><g><g><path d="M192.4,367.2c-13.2,0-26.3-5-36.3-15c-20-20-20-52.7,0-72.7l19.4,19.4c-4.5,4.5-7,10.6-7,17c0,6.4,2.5,12.4,7,17     c9.1,9.1,24.9,9.1,34,0l19.4,19.4C218.8,362.2,205.6,367.2,192.4,367.2z"/></g><g><g><path d="M165.8,289.2" fill="none" stroke="#000000" stroke-miterlimit="10" stroke-width="2"/></g><g><path d="M178.1,430.3c-25.8,0-51.5-9.8-71.1-29.4c-19-19-29.5-44.2-29.5-71.1c0-25.6,9.5-49.7,26.8-68.4l-0.2-0.2L273.2,92.3      l0,0c14.3-13.9,33.1-21.6,53.1-21.6c20.4,0,39.5,7.9,53.9,22.3c14.4,14.4,22.3,33.5,22.3,53.9c0,19.1-7,37.1-19.7,51.1l0.1,0.1      l-2.2,2.2c-0.2,0.2-0.3,0.3-0.5,0.5l0,0L223.9,357.1l-19.4-19.4l157.3-157.3c8.6-9.1,13.3-21,13.3-33.6c0-13-5.1-25.3-14.3-34.5      c-18.4-18.4-50.6-18.4-69.1,0L126.3,277.9l0.1,0.1c-13.8,13.8-21.4,32.2-21.4,51.8s7.6,37.9,21.4,51.8      c28.5,28.5,74.9,28.5,103.4,0.1l173.3-173.3l19.4,19.4L245.6,404.6l-0.1-0.1C226.4,421.7,202.3,430.3,178.1,430.3z"/></g></g></g><g><path d="M165.8,289.2" fill="none" stroke="#000000" stroke-miterlimit="10" stroke-width="2"/></g><g><rect height="27.4" transform="matrix(0.7071 -0.7071 0.7071 0.7071 -82.669 232.2579)" width="207.2" x="135.4" y="202.2"/></g></g></svg>